<?xml version="1.0" encoding="iso-8859-1"?>
<!-- Generator: Adobe Illustrator 19.0.0, SVG Export Plug-In . SVG Version: 6.00 Build 0)  -->
<svg version="1.1" id="Capa_1" xmlns="http://www.w3.org/2000/svg" xmlns:xlink="http://www.w3.org/1999/xlink" x="0px" y="0px"
	 viewBox="0 0 512 512" style="enable-background:new 0 0 512 512;" xml:space="preserve">
<path style="fill:#E3E6E8;" d="M419.394,384.895h-39.485c-11.402,0-20.645-9.243-20.645-20.645s9.243-20.645,20.645-20.645h39.485
	c28.296,0,51.316-23.02,51.316-51.316c0-28.296-23.02-51.316-51.316-51.316h-39.485c-11.402,0-20.645-9.243-20.645-20.645
	s9.243-20.645,20.645-20.645h39.485c51.063,0,92.606,41.542,92.606,92.606S470.457,384.895,419.394,384.895z"/>
<g>
	<path style="fill:#CCCED0;" d="M437.745,340.2c-5.702,2.191-11.885,3.405-18.351,3.405h-39.485
		c-11.402,0-20.645,9.243-20.645,20.645c0,11.402,9.243,20.645,20.645,20.645h39.485c0.661,0,1.32-0.011,1.978-0.025
		c3.347-7.277,6.53-15.049,9.515-23.37C433.399,354.494,435.676,347.376,437.745,340.2z"/>
	<path style="fill:#CCCED0;" d="M379.909,199.683c-11.402,0-20.645,9.243-20.645,20.645s9.243,20.645,20.645,20.645h39.485
		c13.186,0,25.223,5.003,34.322,13.204c1.687-16.648,2.603-32.431,3.035-46.616c-11.433-5.06-24.071-7.878-37.356-7.878H379.909z"/>
</g>
<path style="fill:#E3E6E8;" d="M395.992,164.404H42.713c-16.782,0-30.341,13.704-30.124,30.484
	c0.956,73.809,16.176,256.293,143.169,259.114l63.593,28.311l63.593-28.311c126.994-2.822,142.214-185.306,143.169-259.114
	C426.333,178.108,412.774,164.404,395.992,164.404z"/>
<path style="fill:#CCCED0;" d="M207.268,454.003C80.276,451.181,65.055,268.697,64.099,194.888
	c-0.217-16.78,13.342-30.484,30.124-30.484H42.713c-16.782,0-30.341,13.704-30.124,30.484
	c0.956,73.809,16.176,256.293,143.169,259.114l63.593,28.311l25.755-11.466L207.268,454.003z"/>
<g>
	<path style="fill:#3B484A;" d="M137.955,311.375c-4.267,0-7.726-3.459-7.726-7.726v-14.732c0-4.267,3.459-7.726,7.726-7.726
		c4.267,0,7.726,3.459,7.726,7.726v14.732C145.681,307.915,142.222,311.375,137.955,311.375z"/>
	<path style="fill:#3B484A;" d="M300.751,311.375c-4.267,0-7.726-3.459-7.726-7.726v-14.732c0-4.267,3.459-7.726,7.726-7.726
		c4.267,0,7.726,3.459,7.726,7.726v14.732C308.477,307.915,305.018,311.375,300.751,311.375z"/>
	<path style="fill:#3B484A;" d="M219.353,322.263c-11.85,0-22.967-4.944-30.502-13.562c-2.808-3.213-2.481-8.094,0.732-10.902
		c3.213-2.808,8.094-2.481,10.902,0.732c4.599,5.262,11.476,8.28,18.867,8.28s14.268-3.017,18.867-8.28
		c2.809-3.213,7.69-3.54,10.902-0.732c3.213,2.808,3.541,7.689,0.732,10.902C242.32,317.319,231.204,322.263,219.353,322.263z"/>
</g>
<path style="fill:#CCCED0;" d="M254.87,65.077c-8.413-21.631-21.274-32.645-18.6-54.418c0.665-5.418-4.02-9.981-9.421-9.196
	c-8.558,1.243-18.844,2.741-20.274,3.222c-28.204,9.495-31.228,35.563-19.262,59.852c10.344,20.999,28.406,38.594,31.495,61.903
	c0.677,5.106,6.651,7.567,10.695,4.378C249.53,115.028,264.875,90.801,254.87,65.077z"/>
<path style="fill:#FFADCC;" d="M421.918,454.003H16.789C7.517,454.003,0,461.519,0,470.792l0,0c0,22,17.834,39.834,39.834,39.834
	h359.039c22,0,39.834-17.835,39.834-39.834l0,0C438.706,461.519,431.19,454.003,421.918,454.003z"/>
<path style="fill:#FF87B4;" d="M51.509,470.791L51.509,470.791c0-9.272,7.516-16.789,16.789-16.789H16.789
	C7.517,454.002,0,461.518,0,470.791l0,0c0,22,17.834,39.834,39.834,39.834h51.509C69.344,510.625,51.509,492.791,51.509,470.791z"/>
<g>
</g>
<g>
</g>
<g>
</g>
<g>
</g>
<g>
</g>
<g>
</g>
<g>
</g>
<g>
</g>
<g>
</g>
<g>
</g>
<g>
</g>
<g>
</g>
<g>
</g>
<g>
</g>
<g>
</g>
</svg>
