<?xml version="1.0" encoding="iso-8859-1"?>
<!-- Generator: Adobe Illustrator 19.0.0, SVG Export Plug-In . SVG Version: 6.00 Build 0)  -->
<svg version="1.1" id="Capa_1" xmlns="http://www.w3.org/2000/svg" xmlns:xlink="http://www.w3.org/1999/xlink" x="0px" y="0px"
	 viewBox="0 0 512 512" style="enable-background:new 0 0 512 512;" xml:space="preserve">
<g>
	<path style="fill:#ccced0;" d="M384.173,423.468l-151.545-17.707L75.872,423.468c-10.705,0-19.383,8.678-19.383,19.383l0,0
		c0,10.705,8.678,19.383,19.383,19.383l154.151,24.883l154.15-24.883c10.705,0,19.383-8.678,19.383-19.383l0,0
		C403.556,432.146,394.878,423.468,384.173,423.468z"/>
	<path style="fill:#ccced0;" d="M434.701,372.928h-44.685c-10.067,0-18.227-8.16-18.227-18.227c0-10.067,8.161-18.227,18.227-18.227
		h44.685c16.649,0,30.193-13.545,30.193-30.193c0-16.649-13.545-30.193-30.193-30.193h-44.685c-10.067,0-18.227-8.16-18.227-18.227
		s8.161-18.227,18.227-18.227h44.685c36.75,0,66.648,29.898,66.648,66.648S471.45,372.928,434.701,372.928z"/>
</g>
<path style="fill:#e2e6e8;" d="M42.208,215.063c0,130.288-16.331,155.285,33.663,208.406h308.301
	c49.995-53.119,33.663-78.117,33.663-208.406L230.021,195.68L42.208,215.063z"/>
<path style="fill:#ccced0;" d="M104.019,215.063l156.909-16.193l-30.905-3.189L42.208,215.063
	c0,130.288-16.331,155.285,33.663,208.406h61.811C87.688,370.349,104.019,345.351,104.019,215.063z"/>
<polygon style="fill:#ccced0;" points="415.75,46.294 398.789,73.775 398.289,102.399 417.242,102.528 434.204,75.046 
	436.864,42.305 "/>
<g>
	<polygon style="fill:#FAE7CA;" points="417.242,102.528 384.712,155.242 358.497,139.065 398.789,73.775 	"/>
	<path style="fill:#FAE7CA;" d="M452.443,33.687l-15.665-9.667c-2.913-1.798-6.732-0.893-8.53,2.02L415.75,46.294l18.454,28.752
		l20.259-32.829C456.261,39.304,455.357,35.485,452.443,33.687z"/>
</g>
<path style="fill:#e2e6e8;" d="M386.837,243.277c0.314,18.164,0.873,33.982,1.353,47.563c2.075,58.767,2.69,76.115-18.056,101.381
	H89.91c-20.746-25.266-20.132-42.614-18.056-101.381c0.48-13.582,1.038-29.399,1.353-47.563H386.837z"/>
<path style="fill:#ccced0;" d="M114.059,392.221c-18.208-33.567-11.73-67.215-10.293-148.945H73.207
	c-0.314,18.164-0.873,33.982-1.353,47.563c-2.076,58.767-2.69,76.115,18.056,101.381L114.059,392.221L114.059,392.221z"/>
<g>
	<path style="fill:#3B484A;" d="M164.061,317.201c-4.267,0-7.726-3.459-7.726-7.726v-12.41c0-4.267,3.459-7.726,7.726-7.726
		c4.267,0,7.726,3.459,7.726,7.726v12.41C171.787,313.741,168.328,317.201,164.061,317.201z"/>
	<path style="fill:#3B484A;" d="M301.195,317.201c-4.267,0-7.726-3.459-7.726-7.726v-12.41c0-4.267,3.459-7.726,7.726-7.726
		c4.267,0,7.726,3.459,7.726,7.726v12.41C308.922,313.741,305.462,317.201,301.195,317.201z"/>
	<path style="fill:#3B484A;" d="M232.628,326.372c-10.333,0-20.032-4.315-26.611-11.841c-2.808-3.213-2.481-8.093,0.731-10.902
		c3.213-2.809,8.093-2.481,10.902,0.731c3.644,4.168,9.102,6.558,14.977,6.558s11.333-2.39,14.976-6.558
		c2.808-3.213,7.689-3.541,10.902-0.732c3.213,2.808,3.541,7.689,0.732,10.902C252.66,322.056,242.961,326.372,232.628,326.372z"/>
</g>
<path style="fill:#E2D1B7;" d="M408.701,181.103c12.944-68.699-56.277-73.847-56.277-73.847H107.62c0,0-69.221,5.149-56.277,73.847
	H408.701z"/>
<path style="fill:#FAE7CA;" d="M352.424,107.256c0,0-53.991,12.386-122.402,12.386S107.62,107.256,107.62,107.256
	c-10.334-56.818,81.607-61.984,81.607-61.984c12.225-36.69,47.114-44.324,69.582-45.26c8.39-0.361,14.871,7.562,12.566,15.627
	c-4.339,15.105-0.558,29.633-0.558,29.633S362.758,50.438,352.424,107.256z"/>
<path style="fill:#EC8094;" d="M103.306,163.167c-2.421,0-4.806-1.135-6.311-3.262L85.191,143.24
	c-2.466-3.482-1.643-8.304,1.839-10.771c3.481-2.467,8.304-1.643,10.771,1.839l11.804,16.665c2.467,3.482,1.643,8.304-1.839,10.771
	C106.41,162.706,104.85,163.167,103.306,163.167z"/>
<path style="fill:#5FBDFF;" d="M157.815,92.563c-2.421,0-4.806-1.135-6.311-3.262c-2.467-3.482-1.643-8.304,1.839-10.771
	l16.665-11.804c3.481-2.467,8.304-1.643,10.771,1.839c2.467,3.482,1.643,8.304-1.839,10.771l-16.666,11.804
	C160.918,92.102,159.359,92.563,157.815,92.563z"/>
<path style="fill:#e2e6e8;" d="M173.265,160.738c-2.421,0-4.806-1.135-6.311-3.262c-2.467-3.482-1.643-8.304,1.839-10.771
	l16.665-11.804c3.481-2.467,8.304-1.643,10.771,1.839c2.467,3.482,1.643,8.304-1.839,10.771l-16.665,11.804
	C176.369,160.276,174.81,160.738,173.265,160.738z"/>
<g>
	<path style="fill:#EC8094;" d="M224.283,89.209c-1.493,0-3.002-0.432-4.331-1.333c-3.531-2.396-4.451-7.2-2.056-10.731l11.465-16.9
		c2.396-3.531,7.201-4.452,10.731-2.056c3.531,2.396,4.451,7.2,2.056,10.731l-11.465,16.9
		C229.189,88.022,226.758,89.209,224.283,89.209z"/>
	<path style="fill:#EC8094;" d="M356.739,163.167c-1.544,0-3.103-0.462-4.46-1.422c-3.482-2.466-4.305-7.289-1.839-10.771
		l11.804-16.665c2.467-3.482,7.289-4.306,10.771-1.839c3.482,2.466,4.306,7.289,1.839,10.771l-11.804,16.665
		C361.544,162.033,359.159,163.167,356.739,163.167z"/>
</g>
<path style="fill:#e2e6e8;" d="M302.231,92.563c-1.544,0-3.103-0.462-4.46-1.422l-16.665-11.805
	c-3.482-2.466-4.305-7.289-1.839-10.772c2.467-3.481,7.289-4.305,10.771-1.839l16.664,11.804c3.482,2.466,4.305,7.289,1.839,10.771
	C307.035,91.428,304.652,92.563,302.231,92.563z"/>
<path style="fill:#5FBDFF;" d="M286.779,160.738c-1.544,0-3.103-0.462-4.46-1.422l-16.665-11.804
	c-3.482-2.466-4.306-7.289-1.839-10.771c2.467-3.482,7.289-4.306,10.771-1.839l16.665,11.804c3.482,2.466,4.306,7.289,1.839,10.771
	C291.585,159.602,289.2,160.738,286.779,160.738z"/>
<path style="fill:#ccced0;" d="M417.837,176.297H42.208c-10.705,0-19.383,8.678-19.383,19.383l0,0
	c0,10.705,8.678,19.383,19.383,19.383h375.629c10.705,0,19.383-8.678,19.383-19.383l0,0
	C437.219,184.976,428.541,176.297,417.837,176.297z"/>
<path style="fill:#FAE7CA;" d="M10.652,462.233L10.652,462.233c0,27.485,22.282,49.767,49.767,49.767h339.207
	c27.485,0,49.767-22.282,49.767-49.767l0,0H10.652z"/>
<g>
</g>
<g>
</g>
<g>
</g>
<g>
</g>
<g>
</g>
<g>
</g>
<g>
</g>
<g>
</g>
<g>
</g>
<g>
</g>
<g>
</g>
<g>
</g>
<g>
</g>
<g>
</g>
<g>
</g>
</svg>
