<?xml version="1.0" encoding="iso-8859-1"?>
<!-- Generator: Adobe Illustrator 19.0.0, SVG Export Plug-In . SVG Version: 6.00 Build 0)  -->
<svg version="1.1" id="Capa_1" xmlns="http://www.w3.org/2000/svg" xmlns:xlink="http://www.w3.org/1999/xlink" x="0px" y="0px"
	 viewBox="0 0 512 512" style="enable-background:new 0 0 512 512;" xml:space="preserve">
<path style="fill:#e2e6e9;" d="M239.963,0c0,0-60.756,16.14-71.225,55.398l0,0l0.028,0.019l6.343,14.569l64.778,32.118
	l67.568-20.332C337.112,18.757,243.141,29.225,239.963,0z"/>
<path style="fill:#ccced1;" d="M198.647,68.028l-0.035-0.022l0,0c6.861-25.73,31.316-43.368,52.625-54.222
	c-6.284-3.596-10.634-7.88-11.275-13.784c0,0-60.756,16.14-71.225,55.398l0,0l0.028,0.019l6.343,14.569l31.105,15.423
	L198.647,68.028z"/>
<path style="fill:#87C2D1;" d="M400.295,364.182H380.56c-9.014,0-16.32-7.307-16.32-16.32c0-9.013,7.307-16.32,16.32-16.32h19.735
	c20.312,0,36.838-16.525,36.838-36.838c0-20.312-16.525-36.838-36.838-36.838h-27.978c-9.014,0-16.32-7.307-16.32-16.32
	c0-9.014,7.307-16.32,16.32-16.32h27.978c38.31,0,69.48,31.168,69.48,69.48C469.773,333.014,438.605,364.182,400.295,364.182z"/>
<path style="fill:#ccced1;" d="M168.737,55.398c0,0-42.033,20.065-30.177,52.345l-2.108,35.729l97.793,5.337l101.615-10.675
	C384.222,55.398,187.058,80.697,168.737,55.398z"/>
<path style="fill:#bec1c5;" d="M165.887,145.077l1.031-17.486c-12.044-32.79,21.876-55.157,33.06-61.485
	c-15.674-2.318-27.397-5.399-31.241-10.709c0,0-42.033,20.066-30.177,52.345l-2.108,35.729L165.887,145.077z"/>
<path style="fill:#e2e6e9;" d="M138.56,107.743c0,0-59.906,30.786-24.461,82.132l126.886,16.677l118.819-16.677
	C407.238,89.422,148.513,141.766,138.56,107.743z"/>
<path style="fill:#ccced1;" d="M155.307,189.875c-22.825-33.064-6.112-57.598,8.684-70.881c-14.18-1.94-23.676-5.252-25.43-11.251
	c0,0-59.906,30.786-24.461,82.132l126.885,16.676l19.927-2.797L155.307,189.875z"/>
<path style="fill:#96D7E8;" d="M359.805,189.875H110.643c-12.787,0-23.148,10.383-23.133,23.17
	c0.254,205.214,4.901,229.555,62.935,255.199l84.778,21.879l84.778-21.879c58.034-25.643,62.68-49.984,62.935-255.199
	C382.953,200.258,372.591,189.875,359.805,189.875z"/>
<path style="fill:#68C9E0;" d="M201.954,468.243c-58.034-25.643-62.68-49.984-62.935-255.199
	c-0.015-12.787,10.346-23.17,23.133-23.17h-51.509c-12.787,0-23.148,10.383-23.133,23.17
	c0.254,205.214,4.901,229.555,62.935,255.199l84.778,21.879l25.755-6.647L201.954,468.243z"/>
<path style="fill:#e2e6e9;" d="M115.496,217.857c0.065,38.218,0.317,69.6,1.026,95.499l118.702,27.978l118.702-27.978
	c0.709-25.899,0.96-57.28,1.026-95.499H115.496z"/>
<g>
	<path style="fill:#3B484A;" d="M180.511,276.786c-4.267,0-7.726-3.459-7.726-7.726v-10.746c0-4.267,3.459-7.726,7.726-7.726
		s7.726,3.459,7.726,7.726v10.746C188.237,273.327,184.778,276.786,180.511,276.786z"/>
	<path style="fill:#3B484A;" d="M299.263,276.786c-4.267,0-7.726-3.459-7.726-7.726v-10.746c0-4.267,3.459-7.726,7.726-7.726
		s7.726,3.459,7.726,7.726v10.746C306.989,273.327,303.53,276.786,299.263,276.786z"/>
	<path style="fill:#3B484A;" d="M239.886,284.728c-9.248,0-17.93-3.866-23.823-10.608c-2.808-3.213-2.481-8.094,0.732-10.902
		c3.212-2.807,8.093-2.481,10.902,0.732c2.958,3.384,7.4,5.325,12.188,5.325c4.787,0,9.23-1.941,12.189-5.325
		c2.807-3.213,7.689-3.54,10.902-0.731c3.213,2.808,3.541,7.689,0.731,10.902C257.817,280.861,249.133,284.728,239.886,284.728z"/>
</g>
<path style="fill:#E3E6E8;" d="M419.652,468.243H50.795c-4.733,0-8.569,3.836-8.569,8.569l0,0c0,19.433,15.754,35.188,35.188,35.188
	h315.621c19.433,0,35.188-15.754,35.188-35.188l0,0C428.222,472.079,424.385,468.243,419.652,468.243z"/>
<path style="fill:#CCCED0;" d="M83.433,476.813L83.433,476.813c0-4.734,3.836-8.57,8.569-8.57H50.795
	c-4.733,0-8.569,3.836-8.569,8.569l0,0c0,19.433,15.754,35.187,35.188,35.187h41.207C99.186,512,83.433,496.246,83.433,476.813z"/>
<path style="fill:#ccced1;" d="M116.522,313.355l23.658,5.576c-0.833-27.525-1.089-60.731-1.154-101.075h-23.53
	C115.561,256.075,115.813,287.457,116.522,313.355z"/>
<path style="fill:#e2e6e8;" d="M353.925,313.355c-1.128,41.724-3.422,69.199-7.983,88.057
	c-5.371,22.224-12.394,29.638-31.997,38.852H156.53c-9.792-4.644-15.779-8.58-20.042-13.084
	c-3.599-3.805-8.217-10.175-11.984-25.768c-4.561-18.857-6.855-46.331-7.983-88.057H353.925z"/>
<path style="fill:#ccced1;" d="M116.522,313.355c1.128,41.724,3.422,69.199,7.983,88.057c3.767,15.593,8.384,21.962,11.984,25.768
	c4.262,4.504,10.249,8.439,20.042,13.084h6.044c-15.205-20.913-20.641-55.47-22.554-126.908h-23.499V313.355z"/>
<g>
</g>
<g>
</g>
<g>
</g>
<g>
</g>
<g>
</g>
<g>
</g>
<g>
</g>
<g>
</g>
<g>
</g>
<g>
</g>
<g>
</g>
<g>
</g>
<g>
</g>
<g>
</g>
<g>
</g>
</svg>
