<?xml version="1.0" encoding="iso-8859-1"?>
<!-- Generator: Adobe Illustrator 19.0.0, SVG Export Plug-In . SVG Version: 6.00 Build 0)  -->
<svg version="1.1" id="Capa_1" xmlns="http://www.w3.org/2000/svg" xmlns:xlink="http://www.w3.org/1999/xlink" x="0px" y="0px"
	 viewBox="0 0 512 512" style="enable-background:new 0 0 512 512;" xml:space="preserve">
<path style="fill:#E3E6E8;" d="M394.453,20.62l-2.375-13.388c-0.845-4.765-5.393-7.941-10.157-7.096l-60.394,10.715
	c-15.619,2.771-28.91,13.671-34.685,28.447l-36.518,93.437l28.983,11.327l36.518-93.436c1.854-4.745,6.122-8.245,11.137-9.135
	l60.394-10.715C392.121,29.931,395.299,25.384,394.453,20.62z"/>
<path style="fill:#CCCED0;" d="M304.421,79.807c-2.107-0.23-4.244-0.355-6.412-0.355c-2.626,0-5.241,0.177-7.826,0.525
	c-3.869-5.611-8.392-10.62-13.401-14.938l-26.457,67.696l28.983,11.327L304.421,79.807z"/>
<circle style="fill:#e2e6e8;" cx="298.01" cy="138.395" r="33.192"/>
<path style="fill:#9F6FAD;" d="M285.42,138.4c0-14.735,9.604-27.219,22.891-31.554c-3.244-1.058-6.704-1.638-10.302-1.638
	c-18.332,0-33.192,14.861-33.192,33.193s14.861,33.192,33.192,33.192c3.597,0,7.058-0.58,10.302-1.638
	C295.024,165.618,285.42,153.133,285.42,138.4z"/>
<circle style="fill:#e2e6e8;" cx="213.989" cy="138.395" r="33.192"/>
<path style="fill:#9F6FAD;" d="M201.401,138.4c0-14.735,9.604-27.219,22.891-31.554c-3.244-1.058-6.704-1.638-10.302-1.638
	c-18.332,0-33.192,14.861-33.192,33.193s14.861,33.192,33.192,33.192c3.597,0,7.058-0.58,10.302-1.638
	C211.004,165.618,201.401,153.133,201.401,138.4z"/>
<path style="fill:#51D09A;" d="M225.189,73.105c-9.84,14.034-10.507,34.518-0.165,51.851s28.685,26.474,45.709,24.478
	c9.84-14.034,10.507-34.518,0.165-51.851S242.213,71.109,225.189,73.105z"/>
<path style="fill:#42AA7E;" d="M270.74,157.161c-2.632,0-5.196-1.344-6.643-3.768l-26.411-44.262
	c-2.187-3.664-0.988-8.407,2.675-10.594c3.665-2.187,8.408-0.988,10.594,2.676l26.411,44.262c2.187,3.664,0.988,8.407-2.675,10.594
	C273.452,156.809,272.087,157.161,270.74,157.161z"/>
<path style="fill:#96D7E8;" d="M344.687,183.002L344.687,183.002l-91.799-22.301l-85.575,22.301l0,0
	c-34.195,18.536-55.494,54.308-55.494,93.204v161.445c0,27.277,14.938,52.365,38.918,65.364l0,0
	c10.879,5.897,23.056,8.985,35.431,8.985h139.665c12.373,0,24.552-3.088,35.431-8.985l0,0
	c23.981-12.999,38.918-38.087,38.918-65.364V276.206C400.182,237.311,378.882,201.537,344.687,183.002z"/>
<path style="fill:#68C9E0;" d="M202.246,503.015c-23.981-12.999-38.918-38.087-38.918-65.364V276.206
	c0-38.896,21.299-74.669,55.494-93.204l0,0l60.724-15.826l-26.658-6.477l-85.575,22.301l0,0
	c-34.195,18.535-55.494,54.308-55.494,93.204V437.65c0,27.277,14.938,52.365,38.918,65.364l0,0
	c10.879,5.897,23.056,8.985,35.431,8.985h51.509C225.302,512,213.124,508.912,202.246,503.015L202.246,503.015z"/>
<path style="fill:#A6EDFF;" d="M338.463,138.399H167.312c-12.317,0-22.301,9.985-22.301,22.301l0,0
	c0,12.317,9.985,22.301,22.301,22.301h171.151c12.317,0,22.301-9.985,22.301-22.301l0,0
	C360.765,148.384,350.78,138.399,338.463,138.399z"/>
<path style="fill:#68C9E0;" d="M196.52,160.7L196.52,160.7c0-12.317,9.985-22.301,22.301-22.301h-51.509
	c-12.317,0-22.301,9.985-22.301,22.301l0,0c0,12.317,9.985,22.301,22.301,22.301h51.509
	C206.504,183.002,196.52,173.018,196.52,160.7z"/>
<path style="fill:#e2e6e8;" d="M157.548,231.754c-9.331,12.653-14.612,28.151-14.612,44.452v161.445
	c0,15.877,8.671,30.441,22.628,38.006c6.307,3.418,13.43,5.225,20.603,5.225h139.665c7.172,0,14.296-1.807,20.601-5.224
	c13.959-7.567,22.63-22.13,22.63-38.008V276.206c0-16.301-5.279-31.8-14.609-44.452L157.548,231.754L157.548,231.754z"/>
<path style="fill:#ccced1;" d="M173.104,231.754h-15.556c-9.331,12.654-14.612,28.151-14.612,44.452v161.445
	c0,15.877,8.671,30.441,22.628,38.006c3.409,1.847,7.06,3.206,10.824,4.081c-8.36-12.176-13.062-26.786-13.062-42.087V276.206
	C163.328,260.578,166.772,245.458,173.104,231.754z"/>
<g>
	<path style="fill:#3B484A;" d="M195.492,347.749c-4.267,0-7.726-3.459-7.726-7.726v-10.951c0-4.267,3.459-7.726,7.726-7.726
		c4.267,0,7.726,3.459,7.726,7.726v10.951C203.218,344.29,199.759,347.749,195.492,347.749z"/>
	<path style="fill:#3B484A;" d="M316.507,347.749c-4.267,0-7.726-3.459-7.726-7.726v-10.951c0-4.267,3.459-7.726,7.726-7.726
		c4.267,0,7.726,3.459,7.726,7.726v10.951C324.234,344.29,320.774,347.749,316.507,347.749z"/>
	<path style="fill:#3B484A;" d="M256,355.842c-9.381,0-18.19-3.922-24.166-10.76c-2.808-3.213-2.481-8.094,0.732-10.902
		c3.212-2.808,8.093-2.481,10.902,0.732c3.042,3.48,7.61,5.476,12.532,5.476c4.921,0,9.489-1.996,12.532-5.476
		c2.808-3.213,7.689-3.54,10.902-0.732c3.213,2.808,3.541,7.689,0.731,10.902C274.188,351.92,265.38,355.842,256,355.842z"/>
</g>
<g>
</g>
<g>
</g>
<g>
</g>
<g>
</g>
<g>
</g>
<g>
</g>
<g>
</g>
<g>
</g>
<g>
</g>
<g>
</g>
<g>
</g>
<g>
</g>
<g>
</g>
<g>
</g>
<g>
</g>
</svg>
