<?xml version="1.0" encoding="iso-8859-1"?>
<!-- Generator: Adobe Illustrator 19.0.0, SVG Export Plug-In . SVG Version: 6.00 Build 0)  -->
<svg version="1.1" id="Capa_1" xmlns="http://www.w3.org/2000/svg" xmlns:xlink="http://www.w3.org/1999/xlink" x="0px" y="0px"
	 viewBox="0 0 512 512" style="enable-background:new 0 0 512 512;" xml:space="preserve">
<g>
	<path style="fill:#e2e6e8;" d="M311.602,133.064c-0.802,0-1.618-0.126-2.422-0.39c-4.053-1.336-6.254-5.705-4.917-9.758
		l31.722-96.191c1.336-4.053,5.706-6.254,9.758-4.918c4.053,1.336,6.254,5.705,4.917,9.758l-31.722,96.191
		C317.866,131.004,314.845,133.064,311.602,133.064z"/>
	<path style="fill:#e2e6e8;" d="M256,165.585L111.996,203.96l47.22,284.287C161.493,501.952,173.348,512,187.24,512h137.518
		c13.893,0,25.747-10.048,28.024-23.753l47.22-284.287L256,165.585z"/>
</g>
<path style="fill:#ccced0;" d="M190.122,488.247l-47.22-284.287l128.551-34.257L256,165.587l-144.004,38.374l47.22,284.287
	C161.493,501.952,173.348,512,187.241,512h30.905C204.254,512,192.398,501.952,190.122,488.247z"/>
<path style="fill:#E3E6E8;" d="M380.179,266.234H131.821c-7.679,0-13.522,6.893-12.264,14.469l20.909,125.882
	c0.996,5.998,6.184,10.395,12.264,10.395h206.54c6.08,0,11.268-4.397,12.264-10.395l20.91-125.882
	C393.701,273.128,387.859,266.234,380.179,266.234z"/>
<path style="fill:#CCCED0;" d="M171.371,406.585l-20.91-125.882c-1.259-7.576,4.584-14.469,12.264-14.469h-30.905
	c-7.679,0-13.522,6.893-12.264,14.469l20.91,125.882c0.996,5.998,6.184,10.395,12.264,10.395h30.905
	C177.556,416.98,172.368,412.583,171.371,406.585z"/>
<path style="fill:#ccced0;" d="M309.18,132.673c0.804,0.265,1.619,0.39,2.422,0.39c3.244,0,6.265-2.059,7.336-5.309l17.166-52.052
	h-16.271l-15.57,47.212C302.925,126.968,305.127,131.336,309.18,132.673z"/>
<path style="fill:#E3E6E8;" d="M383.503,122.533c-2.541-12.274-13.353-21.074-25.886-21.074H154.383
	c-12.534,0-23.345,8.802-25.886,21.074l-6.267,30.262L256,165.585l133.77-12.792L383.503,122.533z"/>
<path style="fill:#CCCED0;" d="M153.135,152.795l6.267-30.262c2.541-12.274,13.352-21.075,25.886-21.075h-30.905
	c-12.534,0-23.345,8.801-25.886,21.075l-6.267,30.262L256,165.587l15.453-1.478L153.135,152.795z"/>
<polygon style="fill:#E3E6E8;" points="389.77,178.377 256,165.585 122.23,178.377 111.996,203.96 400.004,203.96 "/>
<g>
	<polygon style="fill:#CCCED0;" points="271.452,167.064 256,165.587 122.23,178.377 111.996,203.961 142.901,203.961 
		153.135,178.377 	"/>
	<path style="fill:#CCCED0;" d="M389.77,152.795H122.23c-7.065,0-12.792,5.727-12.792,12.792l0,0
		c0,7.065,5.727,12.792,12.792,12.792h267.541c7.065,0,12.792-5.727,12.792-12.792l0,0
		C402.561,158.522,396.835,152.795,389.77,152.795z"/>
</g>
<path style="fill:#B3B5B7;" d="M140.343,165.587c0-7.065,5.727-12.792,12.792-12.792H122.23c-7.065,0-12.792,5.727-12.792,12.792
	c0,7.064,5.727,12.792,12.792,12.792h30.905C146.07,178.377,140.343,172.65,140.343,165.587z"/>
<g>
	<path style="fill:#3B484A;" d="M200.101,345.184c-4.267,0-7.726-3.459-7.726-7.726v-10.116c0-4.267,3.459-7.726,7.726-7.726
		c4.267,0,7.726,3.459,7.726,7.726v10.116C207.827,341.726,204.368,345.184,200.101,345.184z"/>
	<path style="fill:#3B484A;" d="M311.899,345.184c-4.267,0-7.726-3.459-7.726-7.726v-10.116c0-4.267,3.459-7.726,7.726-7.726
		s7.726,3.459,7.726,7.726v10.116C319.626,341.726,316.166,345.184,311.899,345.184z"/>
	<path style="fill:#3B484A;" d="M256,352.661c-8.836,0-17.135-3.696-22.769-10.141c-2.808-3.213-2.481-8.094,0.732-10.902
		c3.213-2.808,8.094-2.481,10.902,0.732c2.699,3.087,6.757,4.858,11.134,4.858c4.377,0,8.435-1.771,11.134-4.858
		c2.809-3.213,7.689-3.541,10.902-0.732s3.541,7.689,0.732,10.902C273.135,348.965,264.837,352.661,256,352.661z"/>
</g>
<path style="fill:#ccced0;" d="M360.056,5.983L343.25,0.57c-6.189-1.993-12.822,1.408-14.815,7.598l-9.443,29.323
	c-1.993,6.189,1.408,12.822,7.598,14.815l16.806,5.413c6.189,1.993,12.822-1.408,14.815-7.598l9.443-29.323
	C369.646,14.608,366.245,7.975,360.056,5.983z"/>
<g>
</g>
<g>
</g>
<g>
</g>
<g>
</g>
<g>
</g>
<g>
</g>
<g>
</g>
<g>
</g>
<g>
</g>
<g>
</g>
<g>
</g>
<g>
</g>
<g>
</g>
<g>
</g>
<g>
</g>
</svg>
